<svg xmlns="http://www.w3.org/2000/svg" version="1.1" xmlns:xlink="http://www.w3.org/1999/xlink" xmlns:svgjs="http://svgjs.dev/svgjs" width="1000" height="196" viewBox="0 0 1000 196"><g transform="matrix(1,0,0,1,-0.6060452234777358,-0.19287381463759345)"><svg viewBox="0 0 396 78" data-background-color="#ffffff" preserveAspectRatio="xMidYMid meet" height="196" width="1000" xmlns="http://www.w3.org/2000/svg" xmlns:xlink="http://www.w3.org/1999/xlink"><g id="tight-bounds" transform="matrix(1,0,0,1,0.2399948127046514,0.07675590582516634)"><svg viewBox="0 0 395.52 77.84647993943982" height="77.84647993943982" width="395.52"><g><svg viewBox="0 0 395.52 77.84647993943982" height="77.84647993943982" width="395.52"><g><svg viewBox="0 0 395.52 77.84647993943982" height="77.84647993943982" width="395.52"><g><svg viewBox="0 0 395.52 77.84647993943982" height="77.84647993943982" width="395.52"><g><svg viewBox="0 0 395.52 77.84647993943982" height="77.84647993943982" width="395.52"><g transform="matrix(1,0,0,1,0,0)"><svg width="395.52" viewBox="-0.8499995470046997 -31.250003814697266 198.14999389648438 36" height="77.84647993943982" data-palette-color="#000000"><svg></svg><g class="undefined-text-0" data-fill-palette-color="primary" id="text-0"><path xmlns="http://www.w3.org/2000/svg" d="M39.55-21.4v0c-1.233 0.5-2.29 0.75-3.17 0.75-0.887 0-1.33-0.183-1.33-0.55v0c0-0.233 0.49-0.367 1.47-0.4 0.987-0.033 1.697-0.15 2.13-0.35v0c1.267-0.667 1.9-1.65 1.9-2.95v0c0-0.667-0.183-1.367-0.55-2.1v0c-1.067-1.9-3.65-2.85-7.75-2.85v0c-2.367 0-4.733 0.357-7.1 1.07-2.367 0.72-4.35 1.82-5.95 3.3-1.6 1.487-2.4 2.863-2.4 4.13v0c0 1.933 1.917 3.35 5.75 4.25v0l5.9 1.1c2.367 0.433 4.133 1.033 5.3 1.8v0c1.533 0.933 2.3 2.267 2.3 4v0c0 0.7-0.117 1.45-0.35 2.25v0c-1.067 3.6-3.817 6.35-8.25 8.25v0c-3.7 1.633-8.067 2.45-13.1 2.45v0c-1.433 0-2.683-0.067-3.75-0.2v0c1.067 0.6 2.467 1.117 4.2 1.55v0c0.133 0.033 0.2 0.1 0.2 0.2v0c0 0.3-0.35 0.45-1.05 0.45v0c-1.367 0-3.067-0.817-5.1-2.45v0c-2.767-0.433-4.833-1.2-6.2-2.3v0c-0.867-0.7-1.667-1.733-2.4-3.1-0.733-1.367-1.1-2.6-1.1-3.7 0-1.1 0.217-2.017 0.65-2.75v0c1-1.767 2.267-2.65 3.8-2.65v0c1.167 0 1.85 0.983 2.05 2.95v0c0.467 3.8 0.783 5.967 0.95 6.5v0c0.5 1.633 1.35 3.017 2.55 4.15v0c1.4 0.3 2.917 0.45 4.55 0.45v0c3.6 0 7.133-0.717 10.6-2.15 3.467-1.433 5.967-3.467 7.5-6.1v0c0.633-1.033 0.95-1.95 0.95-2.75v0c0-1.567-1.383-2.783-4.15-3.65v0l-8.8-2c-1.8-0.433-3.24-1.15-4.32-2.15-1.087-1-1.63-2.15-1.63-3.45v0c0-2 1.25-4 3.75-6v0c1.9-1.533 4.227-2.727 6.98-3.58 2.747-0.847 5.447-1.27 8.1-1.27 2.647 0 4.837 0.383 6.57 1.15v0c2.233 1.033 3.35 2.54 3.35 4.52 0 1.987-1.017 3.38-3.05 4.18zM7.35 0.9v0c-1.933-2.133-3.167-5.05-3.7-8.75v0c-0.3-2.1-0.583-3.15-0.85-3.15-0.267 0-0.517 0.073-0.75 0.22-0.233 0.153-0.467 0.48-0.7 0.98-0.233 0.5-0.35 1.15-0.35 1.95v0c0 2.567 0.9 4.767 2.7 6.6v0c0.9 0.933 2.117 1.65 3.65 2.15zM49.25-0.2v0c-1.967 0-2.95-1.15-2.95-3.45v0c0-1.3 0.457-2.743 1.37-4.33 0.92-1.58 2.047-3.437 3.38-5.57v0c-4.267 2.133-8.133 5.283-11.6 9.45v0c-1.933 2.9-3.067 4.35-3.4 4.35v0c-0.967 0-1.45-0.283-1.45-0.85v0c0-0.3 0.2-0.833 0.6-1.6v0c3.233-5.767 5.683-9.983 7.35-12.65v0c3.967-6.367 6.767-9.817 8.4-10.35v0c0.067-0.033 0.133-0.05 0.2-0.05v0c0.433 0 0.733 0.35 0.9 1.05v0c-0.1 0.7-1.833 3.233-5.2 7.6v0c-3.5 4.433-5.483 7.333-5.95 8.7v0c1.233-0.9 3.383-2.417 6.45-4.55v0c3.3-2.3 5.483-3.45 6.55-3.45 1.067 0 1.6 0.417 1.6 1.25v0c0 0.133-0.01 0.223-0.03 0.27-0.013 0.053-1.17 1.63-3.47 4.73-2.3 3.1-3.45 5.383-3.45 6.85v0c0 0.767 0.283 1.15 0.85 1.15v0c1.8-0.067 4.5-2.233 8.1-6.5v0c0.3-0.3 0.523-0.45 0.67-0.45 0.153 0 0.23 0.1 0.23 0.3v0c0 0.667-1.65 2.467-4.95 5.4v0c-2.067 1.8-3.467 2.7-4.2 2.7zM72.8-14.95v0l0.7-0.15c0.367 0 0.717 0.15 1.05 0.45 0.333 0.3 0.5 0.533 0.5 0.7 0 0.167-1.033 1.773-3.1 4.82-2.067 3.053-3.1 5.18-3.1 6.38v0c0 0.1 0.017 0.2 0.05 0.3v0c0.167 0.767 0.533 1.15 1.1 1.15v0c1.733 0 4.9-2.867 9.5-8.6v0c0.1-0.133 0.217-0.2 0.35-0.2 0.133 0 0.2 0.123 0.2 0.37 0 0.253-0.15 0.58-0.45 0.98v0c-4.267 5.7-7.517 8.55-9.75 8.55v0c-0.3 0-0.583-0.05-0.85-0.15v0c-1.467-0.567-2.2-1.667-2.2-3.3v0c0-0.567 0.067-1.133 0.2-1.7v0l-3.1 3c-1.967 1.733-3.39 2.6-4.27 2.6-0.887 0-1.73-0.283-2.53-0.85v0c-0.9-0.667-1.35-1.55-1.35-2.65v0c0-2.433 1.7-5.343 5.1-8.73 3.4-3.38 6.517-5.07 9.35-5.07v0c1.1 0 1.833 0.383 2.2 1.15v0c0.1 0.267 0.183 0.49 0.25 0.67 0.067 0.187 0.117 0.28 0.15 0.28zM57.85-2.65v0c0 1.2 0.417 1.8 1.25 1.8v0c1.933 0 4.567-2.117 7.9-6.35v0l5.3-7.3c-0.267-0.467-0.7-0.7-1.3-0.7v0c-2.033 0-4.733 1.573-8.1 4.72-3.367 3.153-5.05 5.763-5.05 7.83zM87 0.25v0c-2.5 0-3.75-1.383-3.75-4.15v0c0-1.4 0.367-2.933 1.1-4.6 0.733-1.667 1.533-3.067 2.4-4.2v0c-0.167 0.033-0.383 0.05-0.65 0.05v0c-0.8 0-1.467-0.567-2-1.7v0l-3.7 4.8c-2.067 2.567-3.267 3.85-3.6 3.85v0c-0.167 0-0.25-0.067-0.25-0.2v0c0-0.333 0.283-0.817 0.85-1.45v0c2.9-3.367 4.95-6.217 6.15-8.55v0c0.767-2.9 1.733-4.35 2.9-4.35v0c0.767 0 1.15 0.333 1.15 1 0 0.667-0.417 1.517-1.25 2.55v0l-1.2 1.6c0 0.7 0.517 1.05 1.55 1.05v0c0.6 0 1.267-0.217 2-0.65v0l1.3-0.8c0.067-0.033 0.233-0.05 0.5-0.05 0.267 0 0.55 0.167 0.85 0.5 0.3 0.333 0.4 0.633 0.3 0.9v0l-3.45 4.35c-2.133 2.733-3.2 4.89-3.2 6.47 0 1.587 0.733 2.38 2.2 2.38v0c1.533 0 3.417-0.817 5.65-2.45v0c1.333-0.967 2.55-2.05 3.65-3.25v0c1.033-1.2 1.6-1.8 1.7-1.8v0c0.233 0 0.35 0.123 0.35 0.37 0 0.253-0.15 0.547-0.45 0.88v0l-1.6 1.8c-0.9 0.933-1.9 1.833-3 2.7v0c-2.633 1.967-4.8 2.95-6.5 2.95zM99.05 0.65v0c-0.367 0-0.7-0.05-1-0.15v0c-2.133-0.6-3.2-1.8-3.2-3.6v0c0-2.333 1.467-5.033 4.4-8.1 2.933-3.067 5.567-4.6 7.9-4.6v0c0.767 0 1.393 0.207 1.88 0.62 0.48 0.42 0.72 0.93 0.72 1.53v0c0 1.867-1.407 3.65-4.22 5.35-2.82 1.7-5.113 2.55-6.88 2.55v0c-0.267 0-0.5-0.033-0.7-0.1v0c-0.5 0.9-0.75 1.85-0.75 2.85v0c0 1.733 0.827 2.6 2.48 2.6 1.647 0 3.787-1.117 6.42-3.35v0c2.033-1.633 3.767-3.367 5.2-5.2v0c0.3-0.4 0.56-0.6 0.78-0.6 0.213 0 0.32 0.1 0.32 0.3 0 0.2-0.133 0.483-0.4 0.85v0c-1.8 2.367-3.967 4.467-6.5 6.3-2.533 1.833-4.683 2.75-6.45 2.75zM108.5-13.75v0c0-0.4-0.423-0.6-1.27-0.6-0.853 0-2.063 0.65-3.63 1.95v0c-2.1 1.733-3.733 3.55-4.9 5.45v0c0.2 0.067 0.417 0.1 0.65 0.1v0c1.267 0 2.96-0.677 5.08-2.03 2.113-1.347 3.437-2.82 3.97-4.42v0c0.067-0.167 0.1-0.317 0.1-0.45zM121.2-0.2v0c-1.967 0-2.95-1.15-2.95-3.45v0c0-1.3 0.46-2.743 1.38-4.33 0.913-1.58 2.037-3.437 3.37-5.57v0c-4.267 2.133-8.133 5.283-11.6 9.45v0c-1.933 2.9-3.067 4.35-3.4 4.35v0c-0.967 0-1.45-0.283-1.45-0.85v0c0-0.3 0.2-0.833 0.6-1.6v0c3.233-5.767 5.683-9.983 7.35-12.65v0c3.967-6.367 6.767-9.817 8.4-10.35v0c0.067-0.033 0.133-0.05 0.2-0.05v0c0.433 0 0.733 0.35 0.9 1.05v0c-0.1 0.7-1.833 3.233-5.2 7.6v0c-3.5 4.433-5.483 7.333-5.95 8.7v0c1.233-0.9 3.383-2.417 6.45-4.55v0c3.3-2.3 5.483-3.45 6.55-3.45 1.067 0 1.6 0.417 1.6 1.25v0c0 0.133-0.007 0.223-0.02 0.27-0.02 0.053-1.18 1.63-3.48 4.73-2.3 3.1-3.45 5.383-3.45 6.85v0c0 0.767 0.283 1.15 0.85 1.15v0c1.8-0.067 4.5-2.233 8.1-6.5v0c0.3-0.3 0.527-0.45 0.68-0.45 0.147 0 0.22 0.1 0.22 0.3v0c0 0.667-1.65 2.467-4.95 5.4v0c-2.067 1.8-3.467 2.7-4.2 2.7zM141.2-10.6v0c0 1.167-1.117 3.117-3.35 5.85v0c-2.633 3.233-4.883 4.85-6.75 4.85v0h-0.8c-0.867 0-1.55-0.45-2.05-1.35v0c-0.4-0.633-0.6-1.333-0.6-2.1v0c0-2 1.46-4.81 4.38-8.43 2.913-3.613 5.27-5.42 7.07-5.42v0c1.7 0 2.55 0.9 2.55 2.7v0c0 0.467-0.083 1.067-0.25 1.8v0c0.033 0.1 0.35 0.15 0.95 0.15 0.6 0 1.517-0.317 2.75-0.95v0c-0.033 0.567-1.35 1.383-3.95 2.45v0c0.033 0.133 0.05 0.283 0.05 0.45zM137.95-13.2v0c-1.133 0-2.74 1.333-4.82 4-2.087 2.667-3.13 4.633-3.13 5.9 0 1.267 0.4 1.9 1.2 1.9v0c1.433 0 3.25-1.3 5.45-3.9 2.2-2.6 3.3-4.467 3.3-5.6v0c-0.533-0.3-1.2-1.067-2-2.3zM156.2 0.3v0c-0.167 0.033-0.523 0.05-1.07 0.05-0.553 0-1.103-0.217-1.65-0.65-0.553-0.433-0.83-0.993-0.83-1.68 0-0.68 0.127-1.437 0.38-2.27 0.247-0.833 0.42-1.467 0.52-1.9v0c-3.833 4.467-6.833 6.7-9 6.7v0c-1.367 0-2.117-0.85-2.25-2.55v0c0-0.133 0-0.25 0-0.35v0c0-1.433 0.867-3.367 2.6-5.8v0c-0.967 0.867-1.95 1.867-2.95 3v0c-0.133 0.133-0.3 0.2-0.5 0.2v0c-0.133 0-0.2-0.083-0.2-0.25 0-0.167 0.15-0.45 0.45-0.85v0l6.9-8.1c0.867-1 1.75-1.5 2.65-1.5 0.9 0 1.35 0.3 1.35 0.9v0c0 0.233-0.1 0.45-0.3 0.65v0c-1.333 1.233-3.007 3.283-5.02 6.15-2.02 2.867-3.03 4.983-3.03 6.35v0c0 0.6 0.2 0.9 0.6 0.9v0c1.4 0 3.433-1.383 6.1-4.15v0c0.933-0.933 2.667-2.993 5.2-6.18 2.533-3.18 4.2-4.77 5-4.77v0c1.2 0 1.8 0.467 1.8 1.4v0c0 0.333-0.7 1.3-2.1 2.9v0c-1.9 2.3-3.35 4.173-4.35 5.62-1 1.453-1.5 2.63-1.5 3.53 0 0.9 0.25 1.35 0.75 1.35v0c0.233 0 0.5-0.067 0.8-0.2v0c2.3-1 5.05-3.333 8.25-7v0c0.2-0.233 0.4-0.35 0.6-0.35 0.2 0 0.3 0.11 0.3 0.33 0 0.213-0.117 0.453-0.35 0.72v0c-1.433 1.667-3.117 3.34-5.05 5.02-1.933 1.687-3.3 2.613-4.1 2.78zM174.25-1.8l-1.6 1.05c-0.967 0.567-2.157 0.85-3.57 0.85-1.42 0-2.503-0.467-3.25-1.4-0.753-0.933-1.397-2.417-1.93-4.45v0c-0.6 0.6-1.017 0.9-1.25 0.9v0c-0.167 0-0.25-0.117-0.25-0.35 0-0.233 0.083-0.433 0.25-0.6v0c1.1-1.367 2.967-3.333 5.6-5.9v0l6.3-5.9c1.8-1.7 2.867-2.55 3.2-2.55v0c1.067 0 1.6 0.4 1.6 1.2v0c0 0.4-0.157 0.79-0.47 1.17-0.32 0.387-0.553 0.687-0.7 0.9-0.153 0.22-0.313 0.43-0.48 0.63v0c-0.6 1.033-1.207 3.167-1.82 6.4-0.62 3.233-1.097 5.483-1.43 6.75v0c2.767-0.033 5.617-1.833 8.55-5.4v0c0.333-0.333 0.583-0.5 0.75-0.5 0.167 0 0.25 0.107 0.25 0.32 0 0.22-0.15 0.513-0.45 0.88v0c-1.933 2.267-3.733 3.85-5.4 4.75v0c-1 0.5-2.3 0.917-3.9 1.25zM165.9-6.3v0c0 1.133 0.377 2.057 1.13 2.77 0.747 0.72 1.587 1.08 2.52 1.08 0.933 0 1.65-0.183 2.15-0.55v0c0.667-0.367 1.327-1.9 1.98-4.6 0.647-2.7 1.037-5.083 1.17-7.15v0l0.2-1.7c-1.833 1.367-3.79 3.133-5.87 5.3-2.087 2.167-3.163 3.6-3.23 4.3v0c-0.033 0.2-0.05 0.383-0.05 0.55zM183.95 0.65v0c-0.367 0-0.7-0.05-1-0.15v0c-2.133-0.6-3.2-1.8-3.2-3.6v0c0-2.333 1.467-5.033 4.4-8.1 2.933-3.067 5.567-4.6 7.9-4.6v0c0.767 0 1.393 0.207 1.88 0.62 0.48 0.42 0.72 0.93 0.72 1.53v0c0 1.867-1.407 3.65-4.22 5.35-2.82 1.7-5.113 2.55-6.88 2.55v0c-0.267 0-0.5-0.033-0.7-0.1v0c-0.5 0.9-0.75 1.85-0.75 2.85v0c0 1.733 0.827 2.6 2.48 2.6 1.647 0 3.787-1.117 6.42-3.35v0c2.033-1.633 3.767-3.367 5.2-5.2v0c0.3-0.4 0.56-0.6 0.78-0.6 0.213 0 0.32 0.1 0.32 0.3 0 0.2-0.133 0.483-0.4 0.85v0c-1.8 2.367-3.967 4.467-6.5 6.3-2.533 1.833-4.683 2.75-6.45 2.75zM193.4-13.75v0c0-0.4-0.423-0.6-1.27-0.6-0.853 0-2.063 0.65-3.63 1.95v0c-2.1 1.733-3.733 3.55-4.9 5.45v0c0.2 0.067 0.417 0.1 0.65 0.1v0c1.267 0 2.96-0.677 5.08-2.03 2.113-1.347 3.437-2.82 3.97-4.42v0c0.067-0.167 0.1-0.317 0.1-0.45z" fill="#000000" fill-rule="nonzero" stroke="none" stroke-width="1" stroke-linecap="butt" stroke-linejoin="miter" stroke-miterlimit="10" stroke-dasharray="" stroke-dashoffset="0" font-family="none" font-weight="none" font-size="none" text-anchor="none" style="mix-blend-mode: normal" data-fill-palette-color="primary" opacity="1"></path></g></svg></g></svg></g></svg></g></svg></g></svg></g><defs></defs></svg><rect width="395.52" height="77.84647993943982" fill="none" stroke="none" visibility="hidden"></rect></g></svg></g></svg>